<svg width="279" height="279" viewBox="0 0 279 279" fill="none" xmlns="http://www.w3.org/2000/svg">
<rect width="279" height="279" fill="#1E2329"/>
<path d="M59.8962 85V113.549H147.818M77.4806 85H148.232M59.8962 142.511H147.818M168.919 85V142.511L219.19 113.549L168.919 85Z" stroke="#F1BE06" stroke-width="12.8263" stroke-linecap="round" stroke-linejoin="round"/>
<path d="M62.9845 187.544V172.821H57.3178V168.875H73.55V172.821H67.8833V187.544H62.9845ZM75.6074 187.544V168.875H80.5062V176.078H88.0265V168.875H92.9253V187.544H88.0265V180.076H80.5062V187.544H75.6074ZM96.3725 187.544V168.875H109.771V172.609H101.059V176.184H109.136V179.944H101.059V183.784H109.771V187.544H96.3725ZM119.982 187.544V168.875H127.502C129.709 168.875 131.571 169.255 133.09 170.014C134.608 170.755 135.755 171.823 136.532 173.218C137.326 174.595 137.724 176.254 137.724 178.196C137.724 180.121 137.326 181.78 136.532 183.175C135.755 184.569 134.608 185.646 133.09 186.405C131.571 187.164 129.709 187.544 127.502 187.544H119.982ZM124.881 183.572H127.185C129.109 183.572 130.53 183.13 131.448 182.248C132.384 181.365 132.851 180.015 132.851 178.196C132.851 176.36 132.384 175.01 131.448 174.145C130.53 173.262 129.109 172.821 127.185 172.821H124.881V183.572ZM140.67 187.544V168.875H145.568V187.544H140.67ZM156.039 187.835C154.539 187.835 153.109 187.659 151.75 187.305C150.408 186.935 149.278 186.44 148.36 185.823L149.737 182.036C150.32 182.407 150.955 182.724 151.644 182.989C152.332 183.254 153.047 183.466 153.789 183.625C154.548 183.766 155.316 183.837 156.092 183.837C157.257 183.837 158.061 183.687 158.502 183.386C158.961 183.086 159.19 182.698 159.19 182.221C159.19 181.798 159.04 181.471 158.74 181.242C158.44 180.994 157.875 180.783 157.046 180.606L153.815 179.944C152.103 179.591 150.823 178.982 149.975 178.117C149.128 177.234 148.704 176.087 148.704 174.674C148.704 173.439 149.031 172.371 149.684 171.47C150.355 170.552 151.291 169.846 152.491 169.352C153.691 168.84 155.095 168.584 156.701 168.584C158.025 168.584 159.27 168.769 160.435 169.14C161.6 169.493 162.553 169.988 163.295 170.623L161.918 174.171C161.212 173.659 160.417 173.271 159.535 173.006C158.652 172.724 157.672 172.583 156.595 172.583C155.572 172.583 154.795 172.741 154.265 173.059C153.753 173.359 153.497 173.792 153.497 174.357C153.497 174.745 153.647 175.081 153.947 175.363C154.265 175.628 154.839 175.848 155.669 176.025L158.846 176.66C160.559 176.996 161.838 177.596 162.686 178.461C163.551 179.326 163.983 180.456 163.983 181.851C163.983 183.051 163.648 184.101 162.977 185.002C162.324 185.902 161.406 186.599 160.223 187.094C159.04 187.588 157.646 187.835 156.039 187.835ZM170.663 187.544V172.821H164.996V168.875H181.228V172.821H175.562V187.544H170.663ZM183.286 187.544V168.875H192.104C194.257 168.875 195.917 169.387 197.082 170.411C198.265 171.435 198.856 172.856 198.856 174.674C198.856 175.893 198.591 176.934 198.062 177.799C197.532 178.646 196.764 179.308 195.758 179.785C194.752 180.244 193.551 180.474 192.157 180.474L192.395 179.812H193.719C194.496 179.812 195.184 180.023 195.784 180.447C196.385 180.871 196.879 181.462 197.267 182.221L200.101 187.544H194.752L191.706 181.586C191.512 181.197 191.221 180.933 190.833 180.791C190.462 180.65 190.038 180.58 189.562 180.58H188.185V187.544H183.286ZM188.185 177.111H191.256C192.21 177.111 192.933 176.925 193.428 176.555C193.922 176.166 194.169 175.592 194.169 174.833C194.169 174.092 193.922 173.536 193.428 173.165C192.933 172.794 192.21 172.609 191.256 172.609H188.185V177.111ZM201.531 178.196C201.531 176.254 201.91 174.569 202.669 173.139C203.428 171.691 204.514 170.57 205.926 169.776C207.339 168.981 209.007 168.584 210.931 168.584C212.873 168.584 214.55 168.981 215.962 169.776C217.375 170.57 218.46 171.691 219.219 173.139C219.996 174.569 220.385 176.254 220.385 178.196C220.385 180.121 219.996 181.806 219.219 183.254C218.46 184.702 217.375 185.831 215.962 186.643C214.55 187.438 212.873 187.835 210.931 187.835C209.007 187.835 207.339 187.438 205.926 186.643C204.532 185.831 203.446 184.702 202.669 183.254C201.91 181.806 201.531 180.121 201.531 178.196ZM206.641 178.196C206.641 179.944 206.994 181.312 207.701 182.301C208.407 183.272 209.484 183.757 210.931 183.757C212.379 183.757 213.464 183.272 214.188 182.301C214.912 181.312 215.274 179.944 215.274 178.196C215.274 176.449 214.912 175.089 214.188 174.118C213.464 173.147 212.379 172.662 210.931 172.662C209.484 172.662 208.407 173.147 207.701 174.118C206.994 175.072 206.641 176.431 206.641 178.196Z" fill="#F1BE06"/>
</svg>
