<svg width="62" height="42" viewBox="0 0 62 42" fill="none" xmlns="http://www.w3.org/2000/svg">
<path d="M3.02002 2.99976V13.055H33.9874M9.21349 2.99976H34.1331M3.02002 23.256H33.9874M41.4195 2.99976V23.256L59.1255 13.055L41.4195 2.99976Z" stroke="#F1BE06" stroke-width="4.51759" stroke-linecap="round" stroke-linejoin="round"/>
<path d="M4.10782 39.9597V34.7741H2.11192V33.3844H7.82915V34.7741H5.83325V39.9597H4.10782ZM8.55378 39.9597V33.3844H10.2792V35.9213H12.928V33.3844H14.6534V39.9597H12.928V37.3296H10.2792V39.9597H8.55378ZM15.8675 39.9597V33.3844H20.5868V34.6995H17.5184V35.9586H20.363V37.283H17.5184V38.6353H20.5868V39.9597H15.8675ZM24.1832 39.9597V33.3844H26.8319C27.6092 33.3844 28.2651 33.5181 28.7999 33.7855C29.3346 34.0466 29.7387 34.4228 30.0123 34.914C30.2921 35.399 30.432 35.9835 30.432 36.6674C30.432 37.3452 30.2921 37.9296 30.0123 38.4208C29.7387 38.912 29.3346 39.2913 28.7999 39.5587C28.2651 39.826 27.6092 39.9597 26.8319 39.9597H24.1832ZM25.9086 38.5607H26.72C27.3978 38.5607 27.8983 38.4053 28.2216 38.0944C28.5512 37.7835 28.7159 37.3078 28.7159 36.6674C28.7159 36.0208 28.5512 35.5451 28.2216 35.2404C27.8983 34.9296 27.3978 34.7741 26.72 34.7741H25.9086V38.5607ZM31.4696 39.9597V33.3844H33.195V39.9597H31.4696ZM36.8831 40.0623C36.3546 40.0623 35.8509 40.0001 35.3722 39.8758C34.8996 39.7452 34.5017 39.5711 34.1783 39.3535L34.6633 38.0198C34.8685 38.1503 35.0924 38.2623 35.3348 38.3555C35.5773 38.4488 35.8292 38.5234 36.0903 38.5794C36.3577 38.6291 36.6281 38.654 36.9017 38.654C37.3121 38.654 37.595 38.6011 37.7504 38.4954C37.9121 38.3897 37.9929 38.2529 37.9929 38.0851C37.9929 37.9358 37.9401 37.8208 37.8344 37.74C37.7287 37.6529 37.5297 37.5783 37.2375 37.5161L36.0996 37.283C35.4965 37.1586 35.0457 36.9441 34.7473 36.6394C34.4488 36.3285 34.2996 35.9244 34.2996 35.427C34.2996 34.9917 34.4146 34.6156 34.6447 34.2984C34.8809 33.9751 35.2105 33.7264 35.6333 33.5523C36.0561 33.372 36.5504 33.2818 37.1162 33.2818C37.5826 33.2818 38.0209 33.3471 38.4313 33.4777C38.8417 33.6021 39.1774 33.7762 39.4386 34L38.9536 35.2498C38.7049 35.0695 38.4251 34.9327 38.1142 34.8394C37.8033 34.7399 37.4582 34.6902 37.0789 34.6902C36.7183 34.6902 36.4447 34.7461 36.2582 34.858C36.0779 34.9637 35.9877 35.1161 35.9877 35.3151C35.9877 35.4518 36.0406 35.57 36.1463 35.6695C36.2582 35.7627 36.4603 35.8405 36.7525 35.9026L37.8717 36.1265C38.4748 36.2446 38.9256 36.456 39.2241 36.7607C39.5287 37.0654 39.6811 37.4633 39.6811 37.9545C39.6811 38.3773 39.5629 38.7473 39.3266 39.0644C39.0966 39.3815 38.7733 39.6271 38.3567 39.8012C37.9401 39.9753 37.4489 40.0623 36.8831 40.0623ZM42.0337 39.9597V34.7741H40.0378V33.3844H45.755V34.7741H43.7591V39.9597H42.0337ZM46.4797 39.9597V33.3844H49.5854C50.344 33.3844 50.9285 33.5648 51.3388 33.9254C51.7554 34.286 51.9637 34.7865 51.9637 35.427C51.9637 35.856 51.8705 36.2228 51.6839 36.5275C51.4974 36.826 51.2269 37.0591 50.8725 37.227C50.5181 37.3887 50.0953 37.4695 49.6041 37.4695L49.688 37.2363H50.1544C50.4279 37.2363 50.6704 37.311 50.8818 37.4602C51.0932 37.6094 51.2673 37.8177 51.4041 38.0851L52.4021 39.9597H50.5181L49.4455 37.8612C49.3771 37.7244 49.2745 37.6312 49.1378 37.5814C49.0072 37.5317 48.858 37.5068 48.6901 37.5068H48.2051V39.9597H46.4797ZM48.2051 36.285H49.287C49.6227 36.285 49.8777 36.2197 50.0518 36.0892C50.2259 35.9524 50.3129 35.7503 50.3129 35.4829C50.3129 35.2218 50.2259 35.0259 50.0518 34.8954C49.8777 34.7648 49.6227 34.6995 49.287 34.6995H48.2051V36.285ZM52.9058 36.6674C52.9058 35.9835 53.0395 35.3897 53.3068 34.886C53.5742 34.3762 53.9566 33.9813 54.454 33.7015C54.9514 33.4217 55.539 33.2818 56.2167 33.2818C56.9007 33.2818 57.4914 33.4217 57.9888 33.7015C58.4862 33.9813 58.8686 34.3762 59.136 34.886C59.4096 35.3897 59.5463 35.9835 59.5463 36.6674C59.5463 37.3452 59.4096 37.9389 59.136 38.4488C58.8686 38.9587 58.4862 39.3566 57.9888 39.6426C57.4914 39.9224 56.9007 40.0623 56.2167 40.0623C55.539 40.0623 54.9514 39.9224 54.454 39.6426C53.9628 39.3566 53.5804 38.9587 53.3068 38.4488C53.0395 37.9389 52.9058 37.3452 52.9058 36.6674ZM54.7058 36.6674C54.7058 37.283 54.8302 37.7648 55.0789 38.113C55.3276 38.455 55.7069 38.626 56.2167 38.626C56.7266 38.626 57.109 38.455 57.3639 38.113C57.6188 37.7648 57.7463 37.283 57.7463 36.6674C57.7463 36.0519 57.6188 35.5731 57.3639 35.2311C57.109 34.8891 56.7266 34.7181 56.2167 34.7181C55.7069 34.7181 55.3276 34.8891 55.0789 35.2311C54.8302 35.5669 54.7058 36.0456 54.7058 36.6674Z" fill="#F1BE06"/>
</svg>
